<svg width="42" height="42" viewBox="0 0 42 42" fill="none" xmlns="http://www.w3.org/2000/svg">
<g filter="url(#filter0_d_15_10)">
<path fill-rule="evenodd" clip-rule="evenodd" d="M16.8859 0.268966C15.5639 0.6335 14.2896 1.34612 13.2035 2.32829C12.3952 3.05936 11.9754 3.63799 11.3257 4.9168L10.8194 5.91319L10.032 6.15817C6.43831 7.27622 4.01849 10.512 4.00038 14.2239C3.99442 15.4484 4.05606 15.8855 4.3761 16.8844C4.67522 17.8184 5.04397 18.5441 5.67438 19.4397L6.18262 20.1618L6.03852 20.6619C5.95932 20.937 5.87034 21.7658 5.84109 22.5038C5.78046 24.027 5.99566 25.141 6.59468 26.4054C8.18183 29.7553 11.732 31.7384 15.4016 31.325L16.3277 31.2207L16.8359 31.6981C17.5683 32.3861 18.0437 32.7066 19.045 33.1875C21.0193 34.1356 23.8396 34.2809 25.8795 33.4809C28.164 32.5848 29.9186 30.953 30.7893 28.9146C30.9534 28.5305 31.1184 28.186 31.1558 28.1489C31.1934 28.1119 31.6192 27.9495 32.1022 27.7882C34.7921 26.8897 36.7648 24.8995 37.6239 22.2174C37.9439 21.2185 38.0056 20.7814 37.9996 19.5569C37.991 17.7769 37.4279 16.0858 36.3453 14.5873L35.8326 13.8776L36.0095 13.1092C36.2618 12.0136 36.2407 10.2407 35.9624 9.16621C35.2115 6.2665 33.1148 4.04752 30.1681 3.03402C28.3499 2.45743 26.7589 2.6272 25.6311 2.6966L25.0311 2.17263C24.2747 1.512 23.1959 0.871374 22.1812 0.480064C20.7221 -0.08243 18.3972 -0.147728 16.8859 0.268966ZM20.563 2.37828C21.4873 2.57183 23.4262 3.53266 23.2416 3.70576C23.1754 3.76787 20.3263 5.40766 18.019 6.71158C16.9671 7.30599 16.0192 7.90062 15.9122 8.03306C15.7348 8.25293 15.7177 8.70124 15.7153 13.1902C15.7139 16.1265 15.6709 18.1066 15.6088 18.1066C15.4699 18.1066 13.1226 16.7943 12.8724 16.5768C12.6917 16.4196 12.6759 16.0782 12.6795 12.3952C12.684 7.7893 12.7615 7.09711 13.4204 5.78042C13.974 4.67415 15.2286 3.42256 16.3034 2.90414C17.6482 2.25563 19.1134 2.07475 20.563 2.37828ZM28.9352 5.05346C30.499 5.4461 31.9676 6.43204 32.7988 7.6473C33.5176 8.69813 33.8497 9.67052 33.9119 10.9057C33.9417 11.4977 33.9363 12.0587 33.8998 12.1524C33.8281 12.3372 33.4025 12.1101 28.9414 9.50586C27.7098 8.7869 26.5455 8.17527 26.3541 8.14661C25.9777 8.09028 26.3028 7.91918 20.3438 11.3101C18.7146 12.2373 17.3604 12.9958 17.3347 12.9958C17.3089 12.9958 17.2878 12.2578 17.2878 11.356C17.2878 9.80673 17.3009 9.70796 17.5257 9.5693C17.6565 9.48864 19.2984 8.55225 21.1744 7.48842C24.4703 5.61931 25.3061 5.20289 26.1648 5.00191C26.8252 4.84736 28.2174 4.87325 28.9352 5.05346ZM10.5382 12.6562V16.872L10.7913 17.1448C10.9305 17.2948 11.7278 17.8049 12.5631 18.2784C18.1991 21.4734 19.2531 22.09 19.2267 22.1762C19.1915 22.2909 16.6344 23.7729 16.4717 23.7729C16.4102 23.7729 14.9361 22.9636 13.196 21.9746C11.4557 20.9854 9.8123 20.0537 9.54389 19.904C8.83159 19.507 7.7502 18.4802 7.26356 17.7388C6.55497 16.6594 6.3211 15.8133 6.32121 14.329C6.32132 12.4258 6.79908 11.2542 8.11006 9.94195C8.738 9.31343 10.0606 8.44626 10.3976 8.44215C10.5076 8.44081 10.5382 9.35676 10.5382 12.6562ZM25.8965 10.3716C26.0185 10.4559 27.3839 11.2375 28.9307 12.1084C32.6701 14.2138 33.3746 14.6718 34.1114 15.4759C35.9016 17.4297 36.2521 20.3039 34.9896 22.6769C34.3712 23.8391 33.0855 25.041 31.9668 25.5027L31.5743 25.6647L31.5738 21.5245C31.5735 17.6698 31.5589 17.3614 31.3626 17.0511C31.2277 16.8379 30.711 16.4709 29.9287 16.0327C27.9242 14.91 23.0976 12.1318 22.8674 11.9683C22.6711 11.8288 22.7678 11.7514 24.0485 11.0227C24.8157 10.5861 25.4954 10.2265 25.559 10.2236C25.6226 10.2206 25.7745 10.2871 25.8965 10.3716ZM22.8561 13.8105L24.656 14.843L24.6846 17.0025L24.713 19.1621L22.888 20.2048L21.0629 21.2475L20.354 20.8714C19.9639 20.6645 19.1272 20.1936 18.4945 19.8247L17.344 19.1542L17.3135 17.0257L17.2829 14.8973L18.101 14.4245C18.5508 14.1644 19.3741 13.6865 19.9305 13.3625C20.487 13.0387 20.9679 12.7746 20.9992 12.7758C21.0306 12.777 21.8662 13.2426 22.8561 13.8105ZM27.7588 16.6163C28.4899 17.0187 29.1449 17.4157 29.2143 17.4983C29.3045 17.6057 29.3287 18.9103 29.299 22.0718C29.2593 26.3047 29.2467 26.5274 29.0042 27.2485C27.8958 30.5439 24.6143 32.3882 21.252 31.6051C20.5149 31.4336 19.4482 30.9509 18.9823 30.5784L18.709 30.3598L18.9827 30.1914C19.3915 29.94 22.532 28.1422 24.2623 27.1694C25.0975 26.6997 25.8948 26.1905 26.034 26.0379L26.2871 25.7603V20.8224C26.2871 18.1066 26.3192 15.8845 26.3582 15.8845C26.3974 15.8845 27.0276 16.2138 27.7588 16.6163ZM24.63 24.343C24.3979 24.5722 17.1972 28.5684 16.6354 28.7798C15.8364 29.0805 14.1934 29.1894 13.243 29.0046C11.0687 28.5822 9.25681 27.0347 8.43427 24.8976C8.11006 24.0553 7.9123 21.773 8.1635 21.773C8.29421 21.773 9.13599 22.2425 13.3118 24.6444C14.6287 25.4018 15.5864 25.8839 15.7744 25.8839C16.079 25.8839 16.5256 25.6425 22.0124 22.5121L24.656 21.0038L24.6873 22.6297C24.7044 23.5239 24.6786 24.295 24.63 24.343Z" fill="white"/>
</g>
<defs>
<filter id="filter0_d_15_10" x="0" y="0" width="42" height="42" filterUnits="userSpaceOnUse" color-interpolation-filters="sRGB">
<feFlood flood-opacity="0" result="BackgroundImageFix"/>
<feColorMatrix in="SourceAlpha" type="matrix" values="0 0 0 0 0 0 0 0 0 0 0 0 0 0 0 0 0 0 127 0" result="hardAlpha"/>
<feOffset dy="4"/>
<feGaussianBlur stdDeviation="2"/>
<feComposite in2="hardAlpha" operator="out"/>
<feColorMatrix type="matrix" values="0 0 0 0 0 0 0 0 0 0 0 0 0 0 0 0 0 0 0.25 0"/>
<feBlend mode="normal" in2="BackgroundImageFix" result="effect1_dropShadow_15_10"/>
<feBlend mode="normal" in="SourceGraphic" in2="effect1_dropShadow_15_10" result="shape"/>
</filter>
</defs>
</svg>
