<svg width="26" height="26" viewBox="0 0 26 26" fill="none" xmlns="http://www.w3.org/2000/svg">
<path d="M5.41669 21.1252V6.71688C5.41669 5.50343 5.41669 4.89626 5.65284 4.43278C5.86057 4.0251 6.19178 3.69388 6.59947 3.48615C7.06294 3.25 7.67012 3.25 8.88357 3.25H18.8502C19.457 3.25 19.7607 3.25 19.9925 3.36808C20.1963 3.47194 20.361 3.63755 20.4649 3.84139C20.5829 4.07313 20.5834 4.37672 20.5834 4.98344V17.7668C20.5834 18.3735 20.5829 18.6764 20.4649 18.9082C20.361 19.112 20.1965 19.2782 19.9927 19.382C19.7612 19.5 19.4578 19.5 18.8522 19.5H7.85419C6.50799 19.5 5.41669 20.5913 5.41669 21.9375C5.41669 22.3862 5.78046 22.75 6.22919 22.75H17.7689C18.3744 22.75 18.6778 22.75 18.9094 22.632C19.1132 22.5282 19.2777 22.3621 19.3815 22.1583C19.4996 21.9265 19.5 21.6234 19.5 21.0167V19.5" stroke="#CFCBCB" stroke-width="2" stroke-linecap="round" stroke-linejoin="round"/>
</svg>
