<svg width="23" height="23" viewBox="0 0 23 23" fill="none" xmlns="http://www.w3.org/2000/svg">
<path fill-rule="evenodd" clip-rule="evenodd" d="M6.19231 0C6.68086 0 7.07692 0.39606 7.07692 0.884615V1.76923H15.9231V0.884615C15.9231 0.39606 16.3192 0 16.8077 0C17.2962 0 17.6923 0.39606 17.6923 0.884615V1.76923H20.3462C21.8118 1.76923 23 2.95739 23 4.42308V20.3462C23 21.8118 21.8118 23 20.3462 23H2.65385C1.18816 23 0 21.8118 0 20.3462V4.42308C0 2.95739 1.18816 1.76923 2.65385 1.76923H5.30769V0.884615C5.30769 0.39606 5.70375 0 6.19231 0ZM15.9231 3.53846V4.42308C15.9231 4.91163 16.3192 5.30769 16.8077 5.30769C17.2962 5.30769 17.6923 4.91163 17.6923 4.42308V3.53846H20.3462C20.8346 3.53846 21.2308 3.93452 21.2308 4.42308V7.07692H1.76923V4.42308C1.76923 3.93452 2.16529 3.53846 2.65385 3.53846H5.30769V4.42308C5.30769 4.91163 5.70375 5.30769 6.19231 5.30769C6.68086 5.30769 7.07692 4.91163 7.07692 4.42308V3.53846H15.9231ZM1.76923 8.84615V20.3462C1.76923 20.8346 2.16529 21.2308 2.65385 21.2308H20.3462C20.8346 21.2308 21.2308 20.8346 21.2308 20.3462V8.84615H1.76923ZM10.6154 11.5C10.6154 11.0114 11.0114 10.6154 11.5 10.6154C11.9886 10.6154 12.3846 11.0114 12.3846 11.5C12.3846 11.9886 11.9886 12.3846 11.5 12.3846C11.0114 12.3846 10.6154 11.9886 10.6154 11.5ZM15.0385 10.6154C14.5499 10.6154 14.1538 11.0114 14.1538 11.5C14.1538 11.9886 14.5499 12.3846 15.0385 12.3846C15.527 12.3846 15.9231 11.9886 15.9231 11.5C15.9231 11.0114 15.527 10.6154 15.0385 10.6154ZM17.6923 11.5C17.6923 11.0114 18.0884 10.6154 18.5769 10.6154C19.0654 10.6154 19.4615 11.0114 19.4615 11.5C19.4615 11.9886 19.0654 12.3846 18.5769 12.3846C18.0884 12.3846 17.6923 11.9886 17.6923 11.5ZM18.5769 14.1538C18.0884 14.1538 17.6923 14.5499 17.6923 15.0385C17.6923 15.527 18.0884 15.9231 18.5769 15.9231C19.0654 15.9231 19.4615 15.527 19.4615 15.0385C19.4615 14.5499 19.0654 14.1538 18.5769 14.1538ZM14.1538 15.0385C14.1538 14.5499 14.5499 14.1538 15.0385 14.1538C15.527 14.1538 15.9231 14.5499 15.9231 15.0385C15.9231 15.527 15.527 15.9231 15.0385 15.9231C14.5499 15.9231 14.1538 15.527 14.1538 15.0385ZM11.5 14.1538C11.0114 14.1538 10.6154 14.5499 10.6154 15.0385C10.6154 15.527 11.0114 15.9231 11.5 15.9231C11.9886 15.9231 12.3846 15.527 12.3846 15.0385C12.3846 14.5499 11.9886 14.1538 11.5 14.1538ZM7.07692 15.0385C7.07692 14.5499 7.47298 14.1538 7.96154 14.1538C8.45009 14.1538 8.84615 14.5499 8.84615 15.0385C8.84615 15.527 8.45009 15.9231 7.96154 15.9231C7.47298 15.9231 7.07692 15.527 7.07692 15.0385ZM4.42308 14.1538C3.93452 14.1538 3.53846 14.5499 3.53846 15.0385C3.53846 15.527 3.93452 15.9231 4.42308 15.9231C4.91163 15.9231 5.30769 15.527 5.30769 15.0385C5.30769 14.5499 4.91163 14.1538 4.42308 14.1538ZM3.53846 18.5769C3.53846 18.0884 3.93452 17.6923 4.42308 17.6923C4.91163 17.6923 5.30769 18.0884 5.30769 18.5769C5.30769 19.0654 4.91163 19.4615 4.42308 19.4615C3.93452 19.4615 3.53846 19.0654 3.53846 18.5769ZM7.96154 17.6923C7.47298 17.6923 7.07692 18.0884 7.07692 18.5769C7.07692 19.0654 7.47298 19.4615 7.96154 19.4615C8.45009 19.4615 8.84615 19.0654 8.84615 18.5769C8.84615 18.0884 8.45009 17.6923 7.96154 17.6923ZM10.6154 18.5769C10.6154 18.0884 11.0114 17.6923 11.5 17.6923C11.9886 17.6923 12.3846 18.0884 12.3846 18.5769C12.3846 19.0654 11.9886 19.4615 11.5 19.4615C11.0114 19.4615 10.6154 19.0654 10.6154 18.5769ZM15.0385 17.6923C14.5499 17.6923 14.1538 18.0884 14.1538 18.5769C14.1538 19.0654 14.5499 19.4615 15.0385 19.4615C15.527 19.4615 15.9231 19.0654 15.9231 18.5769C15.9231 18.0884 15.527 17.6923 15.0385 17.6923Z" fill="#CFCBCB"/>
</svg>
