<svg width="37" height="37" viewBox="0 0 37 37" fill="none" xmlns="http://www.w3.org/2000/svg">
<path d="M13.875 26.2083H23.125M13.875 21.5833H23.125M20.0422 4.62634C19.8949 4.625 19.7293 4.625 19.5402 4.625H12.6419C10.9151 4.625 10.0511 4.625 9.3915 4.96106C8.81133 5.25667 8.33999 5.72802 8.04438 6.30819C7.70831 6.96775 7.70831 7.83181 7.70831 9.55863V27.442C7.70831 29.1688 7.70831 30.0318 8.04438 30.6913C8.33999 31.2715 8.81133 31.7437 9.3915 32.0393C10.0504 32.375 10.9134 32.375 12.6369 32.375L24.3631 32.375C26.0865 32.375 26.9483 32.375 27.6072 32.0393C28.1874 31.7437 28.6603 31.2715 28.9559 30.6913C29.2916 30.0324 29.2916 29.1706 29.2916 27.4472V14.3771C29.2916 14.188 29.2915 14.0223 29.2901 13.875M20.0422 4.62634C20.4823 4.63036 20.7596 4.64669 21.0255 4.71052C21.3401 4.78605 21.6417 4.91062 21.9175 5.07967C22.2286 5.27029 22.4957 5.53738 23.0286 6.07031L27.8471 10.8888C28.3804 11.422 28.6455 11.6879 28.8362 11.9991C29.0052 12.275 29.1303 12.5758 29.2058 12.8904C29.2697 13.1563 29.2861 13.4349 29.2901 13.875M20.0422 4.62634L20.0416 8.94199C20.0416 10.6688 20.0416 11.5319 20.3777 12.1915C20.6733 12.7716 21.1447 13.2437 21.7248 13.5393C22.3837 13.875 23.2468 13.875 24.9702 13.875H29.2901" stroke="#666161" stroke-width="2" stroke-linecap="round" stroke-linejoin="round"/>
</svg>
