<svg width="41" height="40" viewBox="0 0 41 40" fill="none" xmlns="http://www.w3.org/2000/svg">
<path d="M33.6667 28.2374V18.9908C33.6667 18.1003 33.6659 17.6548 33.5576 17.2404C33.4617 16.8731 33.3041 16.5256 33.0909 16.2115C32.8504 15.8572 32.5159 15.5633 31.8457 14.9769L23.8457 7.97685C22.6014 6.88804 21.9792 6.34391 21.279 6.13684C20.662 5.95439 20.0044 5.95439 19.3874 6.13684C18.6877 6.34376 18.0664 6.88737 16.8239 7.97454L8.82129 14.9769C8.15107 15.5633 7.81674 15.8572 7.57617 16.2115C7.36299 16.5256 7.20425 16.8731 7.10829 17.2404C7 17.6548 7 18.1003 7 18.9908V28.2374C7 29.7906 7 30.5668 7.25373 31.1794C7.59205 31.9962 8.24053 32.6459 9.05729 32.9842C9.66986 33.2379 10.4464 33.2379 11.9996 33.2379C13.5527 33.2379 14.3301 33.2379 14.9427 32.9842C15.7595 32.6459 16.4078 31.9963 16.7461 31.1795C16.9998 30.567 17 29.7904 17 28.2373V26.5706C17 24.7297 18.4924 23.2373 20.3333 23.2373C22.1743 23.2373 23.6667 24.7297 23.6667 26.5706V28.2373C23.6667 29.7904 23.6667 30.567 23.9204 31.1795C24.2587 31.9963 24.9072 32.6459 25.724 32.9842C26.3365 33.2379 27.1131 33.2379 28.6662 33.2379C30.2194 33.2379 30.9968 33.2379 31.6094 32.9842C32.4261 32.6459 33.0744 31.9962 33.4128 31.1794C33.6665 30.5668 33.6667 29.7906 33.6667 28.2374Z" stroke="white" stroke-width="2" stroke-linecap="round" stroke-linejoin="round"/>
</svg>
